<?xml version="1.0" encoding="utf-8"?>
<!-- Svg Vector Icons : http://www.onlinewebfonts.com/icon -->
<!DOCTYPE svg PUBLIC "-//W3C//DTD SVG 1.1//EN" "http://www.w3.org/Graphics/SVG/1.1/DTD/svg11.dtd">
<svg version="1.1" xmlns="http://www.w3.org/2000/svg" xmlns:xlink="http://www.w3.org/1999/xlink" x="0px" y="0px" viewBox="0 0 1000 1000" enable-background="new 0 0 1000 1000" xml:space="preserve">
<metadata> Svg Vector Icons : http://www.onlinewebfonts.com/icon </metadata>
<g><g transform="translate(0.000000,511.000000) scale(0.100000,-0.100000)"><path d="M4641,4994.4c-262.7-23.3-468.9-54.5-661.5-95.3C2098.1,4500.3,596.1,2998.3,197.3,1116.9C117.5,743.3,100,544.8,100,105.1S117.5-533,197.3-906.6c326.9-1548.7,1416.4-2867.8,2887.3-3498.2c395-169.3,770.5-274.4,1245.2-348.3c313.2-46.7,1011.7-46.7,1323,0c895,140.1,1585.7,430,2315.3,974.8c237.3,177.1,729.6,669.3,906.6,906.6c636.2,852.2,961.1,1737.4,1011.7,2760.8l13.6,258.8L7470,2578L5039.9,5008.1l-165.4-3.9C4783.1,5004.2,4678,4998.3,4641,4994.4z M4874.5,2387.3c0-2175.2,1.9-2369.7,33.1-2402.8c29.2-33.1,130.4-35,2383.4-35h2350.3v-105.1c0-303.5-108.9-861.9-245.1-1262.7c-573.9-1675.2-2039-2865.9-3807.6-3097.4c-301.6-38.9-893-38.9-1194.6,0c-484.5,64.2-986.4,210.1-1400.8,408.6C1816-3544.8,965.8-2577.9,557.2-1336.5C316-605,271.2,330.8,440.5,1107.1c153.7,710.1,478.6,1387.2,933.9,1949.5c704.3,869.7,1776.3,1482.5,2877.5,1647.9c289.9,42.8,303.5,44.8,472.8,48.6l149.8,1.9V2387.3z M7300.7,2377.6c1190.7-1190.7,2165.5-2171.3,2165.5-2181c0-7.8-978.7-11.7-2173.3-9.7l-2175.2,5.8l-5.8,2175.2c-1.9,1194.6,1.9,2173.2,9.7,2173.2C5131.3,4541.1,6111.9,3566.4,7300.7,2377.6z"/><path d="M2674-1087.5c-136.2-38.9-266.5-124.5-324.9-212.1c-40.9-64.2-52.5-107-58.4-221.8c-3.9-77.8,1.9-171.2,15.6-210.1c33.1-103.1,188.7-231.5,356-295.7c260.7-97.3,319.1-126.5,385.2-194.6c124.5-128.4,73.9-309.4-97.3-358c-140.1-38.9-367.7-13.6-537,58.4l-79.8,35l-42.8-120.6c-23.3-64.2-42.8-124.5-42.8-132.3c0-23.4,239.3-93.4,395-112.9c155.6-21.4,375.5-3.9,492.2,38.9c241.3,91.4,352.2,338.5,278.2,612.9c-35,126.5-190.7,264.6-389.1,340.5c-311.3,118.7-398.9,179-418.3,280.2c-25.3,144,81.7,245.1,264.6,245.1c93.4,0,175.1-15.6,361.9-68.1c35-11.7,46.7,3.9,83.7,101.2c40.9,107,40.9,112.8,7.8,138.1C3216.9-1085.6,2837.5-1040.8,2674-1087.5z"/><path d="M4314.2-1081.7c-144-31.1-301.6-114.8-406.6-217.9c-346.3-342.4-336.6-1068.1,21.4-1383.3c75.9-66.2,274.3-147.9,412.5-169.3c217.9-33.1,634.3,35,663.5,108.9c7.8,19.5-42.8,212.1-62.3,237.4c-1.9,2-54.5-13.6-118.7-37c-169.3-58.4-435.8-58.4-558.4,0c-103.1,50.6-177.1,130.4-235.4,254.9c-35,73.9-40.9,124.5-40.9,321c0,217.9,3.9,241.3,56.4,346.3c126.5,258.8,431.9,348.3,764.6,223.8c58.4-21.4,108.9-35,110.9-31.1c1.9,1.9,23.3,58.4,46.7,122.6c48.6,134.3,52.5,128.4-132.3,186.8C4691.6-1073.9,4436.8-1056.4,4314.2-1081.7z"/><path d="M5615.8-1091.4c-140.1-38.9-270.4-136.2-326.9-241.3c-52.5-101.2-62.2-313.2-17.5-416.3c42.8-103.1,182.9-216,342.4-276.3c266.5-99.2,324.9-128.4,391.1-196.5c124.5-128.4,74-309.4-97.3-358c-140.1-38.9-367.7-13.6-537,58.4l-79.8,35l-42.8-120.6c-23.3-64.2-42.8-124.5-42.8-132.3c0-5.8,54.5-31.1,122.6-52.5c336.6-110.9,688.8-91.4,891.1,46.7c147.9,103.1,210.1,328.8,151.8,544.8c-35,126.5-190.7,264.6-389.1,340.5c-311.3,118.7-398.8,179-418.3,280.2c-25.3,144,81.7,245.1,264.6,245.1c93.4,0,175.1-15.6,361.9-68.1c35-11.7,46.7,3.9,83.7,101.2c40.9,107,40.9,112.8,7.8,138.1C6168.3-1081.7,5794.8-1040.8,5615.8-1091.4z"/><path d="M6960.2-1091.4c-130.3-37-260.7-124.5-315.2-212.1c-87.5-144-83.7-383.3,9.7-517.5c66.2-95.3,149.8-145.9,381.3-233.5c225.7-87.5,280.2-120.6,344.4-215.9c81.7-118.7,19.5-268.5-130.3-309.4c-140.1-38.9-367.7-13.6-537,58.4l-79.8,35l-42.8-120.6c-23.3-64.2-42.8-124.5-42.8-132.3c0-23.4,243.2-93.4,402.7-114.8c268.5-35,529.2,23.3,655.7,149.8c87.5,87.5,128.4,194.6,128.4,338.5c0,239.3-128.4,396.9-414.4,507.8c-326.8,124.5-398.8,179-416.4,305.5c-7.8,64.2-1.9,85.6,48.6,142c50.6,58.4,70.1,64.2,182.9,72c110.9,7.8,192.6-5.8,396.9-64.2c35-11.7,46.7,3.9,81.7,101.2c38.9,107,40.9,114.8,9.7,138.1C7512.8-1081.7,7137.2-1040.8,6960.2-1091.4z"/></g></g>
</svg>